<?xml version="1.0" standalone="no"?>
<!DOCTYPE svg PUBLIC "-//W3C//DTD SVG 20010904//EN"
 "http://www.w3.org/TR/2001/REC-SVG-20010904/DTD/svg10.dtd">
<svg version="1.0" xmlns="http://www.w3.org/2000/svg"
 width="512.000000pt" height="512.000000pt" viewBox="0 0 512.000000 512.000000"
 preserveAspectRatio="xMidYMid meet">
<metadata>
Created by potrace 1.11, written by Peter Selinger 2001-2013
</metadata>
<g transform="translate(0.000000,512.000000) scale(0.100000,-0.100000)"
fill="#000000" stroke="none">
<path d="M1425 5106 c-171 -53 -260 -246 -188 -408 24 -54 97 -129 142 -148
l31 -12 0 -257 0 -257 -56 -54 c-214 -210 -386 -509 -458 -800 -54 -219 -54
-227 -56 -1050 -1 -421 -3 -782 -5 -802 -13 -122 -41 -164 -288 -430 -14 -15
-38 -45 -54 -65 -15 -21 -30 -40 -33 -43 -17 -17 -51 -94 -65 -150 -46 -176 4
-351 135 -480 151 -148 341 -184 555 -105 200 74 246 86 341 89 51 2 114 0
140 -5 27 -5 63 -12 79 -15 17 -3 66 -14 110 -24 111 -27 288 -56 390 -65 17
-2 64 -6 105 -11 149 -16 548 -10 710 10 19 2 60 7 90 11 54 5 256 40 295 49
130 33 267 54 334 51 100 -4 130 -10 231 -46 47 -17 117 -42 155 -55 131 -47
276 -38 403 24 78 37 179 140 219 222 42 87 48 116 47 240 0 83 -5 117 -22
161 -22 56 -64 126 -99 164 -10 11 -56 63 -103 115 -47 52 -87 97 -90 100 -13
12 -76 97 -88 119 -33 58 -42 117 -42 289 0 192 -7 219 -60 247 -17 9 -31 12
-32 8 -4 -25 -12 93 -10 149 4 66 4 67 37 78 26 9 37 20 50 53 23 61 -1 113
-62 131 -18 6 -22 15 -25 69 -5 98 1 137 20 137 22 1 56 29 71 58 14 26 13
409 0 514 -22 168 -24 178 -56 293 -32 114 -73 216 -131 330 -39 77 -133 230
-151 245 -3 3 -24 28 -46 55 -22 28 -72 83 -112 124 l-73 73 0 253 0 253 30
12 c48 20 117 92 142 146 90 203 -60 426 -283 419 -114 -3 -209 -66 -260 -172
-32 -65 -33 -177 -1 -246 24 -53 96 -128 141 -147 l31 -12 0 -174 c0 -96 -2
-174 -5 -174 -3 0 -22 10 -43 23 -270 169 -596 258 -922 252 -74 -2 -155 -6
-180 -9 -169 -23 -305 -59 -455 -119 -45 -18 -215 -105 -244 -126 -14 -10 -32
-21 -38 -25 -10 -6 -13 32 -13 172 l0 180 30 12 c17 7 50 32 75 56 188 180 71
498 -188 509 -34 2 -80 -2 -102 -9z"/>
</g>
</svg>
